<svg version="1.1" xmlns="http://www.w3.org/2000/svg" xmlns:xlink="http://www.w3.org/1999/xlink" x="0px" y="0px" viewBox="0 0 1000 1000" enable-background="new 0 0 1000 1000" xml:space="preserve">
<g><path d="M437.3,521.8"/><path d="M499.5,10c67.7,0,131.5,12.9,191.2,38.8c59.7,25.9,111.6,60.8,155.7,104.9c44.1,44.1,79,95.8,104.9,155.1c25.9,59.4,38.8,122.9,38.8,190.6c0,67.7-12.9,131.5-38.8,191.2c-25.9,59.7-60.8,111.6-104.9,155.7c-44.1,44.1-96,79-155.7,104.9C630.9,977.1,567.2,990,499.5,990c-67.7,0-131.3-12.9-190.6-38.8c-59.4-25.9-111.1-60.8-155.1-104.9c-44.1-44.1-79-96-104.9-155.7C22.9,630.9,10,567.2,10,499.4c0-67.7,12.9-131.3,38.8-190.6c25.9-59.4,60.8-111.1,104.9-155.1c44.1-44.1,95.8-79,155.1-104.9C368.2,22.9,431.7,10,499.5,10L499.5,10z M743.1,566.1c21.8,0,41.5-5.6,59-16.9c17.5-11.3,26.2-28.2,26.2-50.8c0-21.9-8.7-38.1-26.2-48.6c-17.5-10.6-37.1-15.8-59-15.8H260.2c-21.9,0-41.9,5.3-60.1,15.8c-18.2,10.6-27.3,26.8-27.3,48.6c0,22.6,9.1,39.5,27.3,50.8c18.2,11.3,38.2,16.9,60.1,16.9H743.1L743.1,566.1z"/></g>
</svg>